<svg version="1.2" xmlns="http://www.w3.org/2000/svg" viewBox="0 0 768 285" width="240" height="89">
	<title>zip_log</title>
	<defs>
		<clipPath clipPathUnits="userSpaceOnUse" id="cp1">
			<path d="m0 0h768v285h-768z"/>
		</clipPath>
	</defs>
	<style>
		.s0 { fill: #000000 } 
		.s1 { fill: #aa8fff } 
	</style>
	<g id="Clip-Path" clip-path="url(#cp1)">
		<g>
			<path class="s0" d="m19.5 227.3l6.7 54.2h233.2l-7.7-62.1h-108.7l-0.9-7.7 100.1-70-6.7-54.3h-233.2l7.7 62.1h108.9l0.9 7.8z"/>
			<path class="s1" d="m262.6 87.4l23.8 194.1h233.4l-23.9-194.1z"/>
			<path class="s0" d="m764.5 157.3c-5.4-43.7-39.7-70.1-86.3-69.9h-155.2l23.8 194.1h69.9l-4.8-38.8h73.9c58.1 0 84.7-36.2 78.7-85.4zm-86.3 31h-73l-5.7-46.6 73.4 0.1c17.3 0.2 26.1 9.9 27.5 23.2 0.9 8.6-3 23.3-22.2 23.3z"/>
			<path class="s0" d="m332.3 61.6c12.3-13.2 10.1-35.2-4.8-49.1-14.9-13.9-37-14.5-49.2-1.3-12.3 13.2-10.2 35.2 4.8 49.1 14.9 13.9 36.9 14.4 49.2 1.3z"/>
		</g>
	</g>
</svg>