<svg xmlns="http://www.w3.org/2000/svg" viewBox="0 0 257.07 20.69"><title>OW-Logo-RGB</title><g id="Layer_2" data-name="Layer 2"><g id="Layer_1-2" data-name="Layer 1"><path d="M10.43,20.69A10.16,10.16,0,0,1,0,10.37,10.25,10.25,0,0,1,10.48,0,10.16,10.16,0,0,1,20.92,10.31,10.26,10.26,0,0,1,10.43,20.69m0-17.46a6.77,6.77,0,0,0-6.74,7.09,6.86,6.86,0,0,0,6.8,7.15,6.77,6.77,0,0,0,6.75-7.09,6.86,6.86,0,0,0-6.81-7.14"/><path d="M35.61,8.74c4.23,1,6.43,2.54,6.43,5.89,0,3.77-2.94,6-7.15,6a12.31,12.31,0,0,1-8.34-3.2l2.12-2.52A9.2,9.2,0,0,0,35,17.52c2.17,0,3.55-1,3.55-2.54s-.8-2.23-4.52-3.09c-4.26-1-6.66-2.29-6.66-6,0-3.48,2.86-5.83,6.83-5.83a11.09,11.09,0,0,1,7.26,2.51L39.56,5.23a9.08,9.08,0,0,0-5.43-2.05c-2.06,0-3.26,1.05-3.26,2.4,0,1.57.92,2.26,4.75,3.17"/><path d="M58.33,20.69A10.07,10.07,0,0,1,48.16,10.37,10.13,10.13,0,0,1,58.47,0a10.43,10.43,0,0,1,7.83,3.12l-2.26,2.6a8,8,0,0,0-5.6-2.49c-3.83,0-6.6,3.14-6.6,7.09s2.77,7.14,6.6,7.14c2.46,0,4-1,5.75-2.6l2.26,2.29a10.32,10.32,0,0,1-8.12,3.54"/><path d="M91.57,20.35H87.86l-2-4.83H76.37l-2.05,4.83h-3.6L79.51.2h3.26ZM81.08,4.4l-3.43,8h6.89Z"/><path d="M110.69,20.35l-4.92-7h-4.4v7H97.86V.34h8.92c4.6,0,7.43,2.43,7.43,6.34a6,6,0,0,1-4.77,6.09l5.4,7.57Zm-4.2-16.8h-5.12v6.71h5.14c2.52,0,4.12-1.31,4.12-3.37s-1.55-3.34-4.14-3.34"/><polygon points="154.55 0.28 157.52 0.28 162.44 15.17 167.21 0.34 170.9 0.34 163.93 20.49 160.9 20.49 155.98 6.12 151.07 20.49 148.03 20.49 141.06 0.34 144.86 0.34 149.64 15.17 154.55 0.28"/><polygon points="186.22 20.35 182.67 20.35 182.67 12.46 174.74 0.34 178.88 0.34 184.47 9.2 190.13 0.34 194.16 0.34 186.22 12.37 186.22 20.35"/><polygon points="199.54 0.34 203.05 0.34 203.05 17.14 213.57 17.14 213.57 20.35 199.54 20.35 199.54 0.34"/><polygon points="234.35 3.48 223.03 3.48 223.03 8.69 232.25 8.69 232.25 11.83 223.03 11.83 223.03 17.2 234.49 17.2 234.49 20.35 219.52 20.35 219.52 0.34 234.35 0.34 234.35 3.48"/><polygon points="256.93 3.48 245.61 3.48 245.61 8.69 254.82 8.69 254.82 11.83 245.61 11.83 245.61 17.2 257.07 17.2 257.07 20.35 242.09 20.35 242.09 0.34 256.93 0.34 256.93 3.48"/><path d="M128.2,0h-.06a10.43,10.43,0,0,0-7.83,3.11l2.25,2.61a7.55,7.55,0,0,1,11.2,0L136,3.11A10.43,10.43,0,0,0,128.2,0"/></g></g></svg>